<?xml version="1.0" encoding="UTF-8" standalone="no"?>
<!-- Created with Inkscape (http://www.inkscape.org/) -->

<svg
   width="1280"
   height="640"
   viewBox="0 0 1280 640"
   version="1.1"
   id="svg1"
   xml:space="preserve"
   inkscape:version="1.4.2 (ebf0e940, 2025-05-08)"
   sodipodi:docname="open-graph.svg"
   xmlns:inkscape="http://www.inkscape.org/namespaces/inkscape"
   xmlns:sodipodi="http://sodipodi.sourceforge.net/DTD/sodipodi-0.dtd"
   xmlns:xlink="http://www.w3.org/1999/xlink"
   xmlns="http://www.w3.org/2000/svg"
   xmlns:svg="http://www.w3.org/2000/svg"><sodipodi:namedview
     id="namedview1"
     pagecolor="#ffffff"
     bordercolor="#000000"
     borderopacity="0.25"
     inkscape:showpageshadow="2"
     inkscape:pageopacity="0.0"
     inkscape:pagecheckerboard="0"
     inkscape:deskcolor="#d1d1d1"
     inkscape:document-units="mm"
     showguides="true"
     showgrid="false"
     inkscape:zoom="1.4142136"
     inkscape:cx="613.41512"
     inkscape:cy="324.91556"
     inkscape:window-width="2512"
     inkscape:window-height="1260"
     inkscape:window-x="0"
     inkscape:window-y="25"
     inkscape:window-maximized="0"
     inkscape:current-layer="layer1"><sodipodi:guide
       position="80,560"
       orientation="1,0"
       id="guide1"
       inkscape:locked="false" /><inkscape:grid
       id="grid1"
       units="px"
       originx="0"
       originy="0"
       spacingx="0.99999998"
       spacingy="0.99999998"
       empcolor="#0099e5"
       empopacity="0.30196078"
       color="#0099e5"
       opacity="0.14901961"
       empspacing="5"
       enabled="true"
       visible="false" /><sodipodi:guide
       position="80,560"
       orientation="0,-1"
       id="guide2"
       inkscape:locked="false" /><sodipodi:guide
       position="1200,80"
       orientation="1,0"
       id="guide3"
       inkscape:locked="false" /><sodipodi:guide
       position="1200,80"
       orientation="0,-1"
       id="guide4"
       inkscape:locked="false" /><sodipodi:guide
       position="90,555"
       orientation="1,0"
       id="guide5"
       inkscape:locked="false" /><sodipodi:guide
       position="90,550"
       orientation="0,-1"
       id="guide6"
       inkscape:locked="false" /><sodipodi:guide
       position="870,90"
       orientation="0,-1"
       id="guide9"
       inkscape:locked="false" /></sodipodi:namedview><defs
     id="defs1"><clipPath
       clipPathUnits="userSpaceOnUse"
       id="clipPath12"><rect
         style="fill:#ff5555"
         id="rect12"
         width="642"
         height="385"
         x="111"
         y="111"
         ry="8" /></clipPath></defs><g
     inkscape:label="Layer 1"
     inkscape:groupmode="layer"
     id="layer1"><rect
       width="1280"
       height="640"
       fill="#ebe2d7"
       id="rect1"
       x="0"
       y="0"
       style="stroke-width:1.76777" /><path
       d="m 1047.1385,243.43387 c -0.672,-0.0275 -1.3586,0.0275 -2.0321,0.1613 -2.8659,0.56443 -5.3165,2.40903 -6.6448,5.01055 -1.3922,2.67751 -3.1509,6.06033 -4.6767,8.9886 v 0.011 c -1.8728,3.5938 -3.3916,6.49789 -3.4191,6.55865 -0.158,0.2791 -0.2978,0.54059 -0.4299,0.79561 -0.5874,1.13312 -1.0274,1.99494 -2.3117,2.20414 -1.3818,0.25653 -2.5629,-0.12771 -4.1825,-1.04292 -18.9485,-10.71392 -43.34173,-2.74194 -53.40506,16.47173 -6.78902,12.98354 -4.90042,28.87932 2.84923,39.00759 0.8326,1.08836 3.3223,4.07498 3.3223,4.07498 3.3762,4.21793 1.9632,6.81645 -0.3331,9.94557 l -4.7844,6.40801 c -5.61809,7.71308 -5.48856,12.17342 -5.15016,14.82701 1.49135,9.68945 13.23756,9.70885 17.11686,9.52615 4.2295,-0.19597 7.6608,-0.42057 10.6443,-0.61286 8.86633,-0.56975 13.75913,-0.88203 23.74013,0.47286 7.1093,0.96064 10.827,3.88798 10.827,9.02068 0,4.88607 -3.7163,8.07088 -11.6764,8.78439 -2.1643,0.19873 -3.7332,0.1723 -8.1713,0.0969 -1.6963,-0.0275 -3.8205,-0.0639 -6.5476,-0.0969 -5.26043,-0.0496 -8.90173,-0.31434 -12.28953,-0.55908 -1.1847,-0.0853 -2.3354,-0.1657 -3.5159,-0.23671 -1.8955,-0.11616 -3.5927,-0.34131 -5.2038,-0.55907 -2.7045,-0.36774 -5.173,-0.70101 -7.9135,-0.40847 -3.10165,0.32919 -7.1295,2.82468 -7.07465,7.47257 0.0732,5.62701 6.04175,6.81688 10.57975,6.81688 0.7062,0 1.8709,-0.0385 3.3224,-0.0754 1.5193,-0.044 3.3632,-0.0958 5.3329,-0.12882 13.7882,-0.21964 21.87093,-0.13541 35.20173,0.19378 17.6949,0 24.2991,-11.22194 24.2991,-21.5789 0,-8.75612 -7.4241,-19.74894 -24.2776,-20.90168 -10.3481,-0.69583 -15.3924,-0.69507 -34.70723,0.0644 -7.9692,0.32039 -2.9138,-5.96709 -2.9138,-5.96709 l 5.9996,-7.99957 0.097,-0.12882 c 0.9535,-1.29806 1.4547,-1.9995 2.8815,-2.45148 1.0405,-0.3226 2.156,-0.29948 3.1826,0.0644 19.13173,6.77974 38.97393,-0.86055 47.86923,-18.66498 7.0354,-13.75527 4.9248,-30.42489 -5.3114,-41.99662 -0.6232,-0.75418 -0.8756,-1.73586 -0.6989,-2.69869 0.1184,-1.10814 0.7075,-2.11776 1.6235,-2.75249 l 13.9236,-11.14979 c 2.3297,-1.75898 3.7667,-4.46076 3.9137,-7.37594 -0.049,-2.85604 -1.3492,-5.54473 -3.5589,-7.35443 -1.5305,-1.3773 -3.4783,-2.15701 -5.4941,-2.23638 z m -35.8038,28.13755 c 2.7666,0.0556 5.6574,0.72055 8.6338,2.17186 11.9219,5.81941 15.2725,21.20759 6.6447,38.427 -8.5641,17.09113 -21.6941,21.52658 -33.52403,15.76202 l -0.1828,-0.0969 c -11.8945,-5.94684 -15.9684,-19.9173 -7.322,-37.13713 4.1111,-8.17763 13.7621,-19.36793 25.75073,-19.12742 z"
       fill="#1e1915"
       stroke-width="5.50506"
       id="path1" /><rect
       style="fill:#323232;stroke-width:0.905194;fill-opacity:1"
       id="rect4"
       width="684"
       height="460"
       x="90"
       y="90"
       ry="17" /><image
       width="642"
       height="385.20001"
       preserveAspectRatio="none"
       style="image-rendering:optimizeQuality"
       xlink:href="full-light.png"
       id="image1"
       x="111"
       y="111"
       clip-path="url(#clipPath12)" /></g></svg>
